<svg data-v-1084b650="" xmlns="http://www.w3.org/2000/svg" viewBox="0 0 300 300"><!----> <rect data-v-1084b650="" fill="url(#5f05c120-1af4-6ba0-fbaa-570df87a72f3)" x="0" y="0" width="100px" height="100px" class="logo-background-square"></rect> <!----> <g data-v-1084b650="" id="7f8a34dc-b650-f85c-1799-0fc48ce8ecb5" fill="#ffffff" transform="matrix(1.9000000000000001,0,0,1.9000000000000001,97.46072621345519,132.68149428367616)"><path d="M6.52 8.88L6.52 8.88Q6.47 8.89 6.47 8.93L6.47 8.93L6.47 8.93Q6.47 8.96 6.52 8.99L6.52 8.99L6.52 8.99Q7.92 9.66 7.92 11.28L7.92 11.28L7.92 11.28Q7.92 12.61 7.04 13.31L7.04 13.31L7.04 13.31Q6.15 14 4.72 14L4.72 14L1.25 14L1.25 14Q1.02 14 1.02 13.78L1.02 13.78L1.02 4.42L1.02 4.42Q1.02 4.20 1.25 4.20L1.25 4.20L4.61 4.20L4.61 4.20Q6.13 4.20 6.96 4.86L6.96 4.86L6.96 4.86Q7.78 5.52 7.78 6.85L7.78 6.85L7.78 6.85Q7.78 8.29 6.52 8.88L6.52 8.88ZM2.73 5.60L2.73 5.60Q2.65 5.60 2.65 5.68L2.65 5.68L2.65 8.25L2.65 8.25Q2.65 8.33 2.73 8.33L2.73 8.33L4.61 8.33L4.61 8.33Q5.35 8.33 5.78 7.97L5.78 7.97L5.78 7.97Q6.20 7.62 6.20 6.99L6.20 6.99L6.20 6.99Q6.20 6.34 5.78 5.97L5.78 5.97L5.78 5.97Q5.35 5.60 4.61 5.60L4.61 5.60L2.73 5.60ZM4.72 12.59L4.72 12.59Q5.45 12.59 5.87 12.19L5.87 12.19L5.87 12.19Q6.30 11.80 6.30 11.13L6.30 11.13L6.30 11.13Q6.30 10.44 5.87 10.06L5.87 10.06L5.87 10.06Q5.43 9.67 4.69 9.67L4.69 9.67L2.73 9.67L2.73 9.67Q2.65 9.67 2.65 9.76L2.65 9.76L2.65 12.50L2.65 12.50Q2.65 12.59 2.73 12.59L2.73 12.59L4.72 12.59ZM15.27 14L15.27 14Q15.08 14 15.01 13.83L15.01 13.83L13.17 9.83L13.17 9.83Q13.16 9.77 13.08 9.77L13.08 9.77L11.44 9.77L11.44 9.77Q11.35 9.77 11.35 9.86L11.35 9.86L11.35 13.78L11.35 13.78Q11.35 14 11.13 14L11.13 14L9.95 14L9.95 14Q9.73 14 9.73 13.78L9.73 13.78L9.73 4.41L9.73 4.41Q9.73 4.19 9.95 4.19L9.95 4.19L13.75 4.19L13.75 4.19Q14.60 4.19 15.26 4.54L15.26 4.54L15.26 4.54Q15.92 4.90 16.28 5.55L16.28 5.55L16.28 5.55Q16.65 6.20 16.65 7.04L16.65 7.04L16.65 7.04Q16.65 8.01 16.15 8.69L16.15 8.69L16.15 8.69Q15.65 9.37 14.78 9.62L14.78 9.62L14.78 9.62Q14.74 9.63 14.73 9.67L14.73 9.67L14.73 9.67Q14.71 9.70 14.74 9.73L14.74 9.73L16.67 13.73L16.70 13.85L16.70 13.85Q16.70 14 16.51 14L16.51 14L15.27 14ZM11.44 5.59L11.44 5.59Q11.35 5.59 11.35 5.67L11.35 5.67L11.35 8.43L11.35 8.43Q11.35 8.51 11.44 8.51L11.44 8.51L13.52 8.51L13.52 8.51Q14.20 8.51 14.61 8.11L14.61 8.11L14.61 8.11Q15.02 7.71 15.02 7.07L15.02 7.07L15.02 7.07Q15.02 6.41 14.61 6.00L14.61 6.00L14.61 6.00Q14.20 5.59 13.52 5.59L13.52 5.59L11.44 5.59ZM21.34 14L21.34 14Q21.11 14 21.11 13.78L21.11 13.78L21.11 4.42L21.11 4.42Q21.11 4.20 21.34 4.20L21.34 4.20L22.51 4.20L22.51 4.20Q22.74 4.20 22.74 4.42L22.74 4.42L22.74 13.78L22.74 13.78Q22.74 14 22.51 14L22.51 14L21.34 14ZM25.00 14L25.00 14Q24.78 14 24.78 13.78L24.78 13.78L24.78 4.42L24.78 4.42Q24.78 4.20 25.00 4.20L25.00 4.20L26.12 4.20L26.12 4.20Q26.32 4.20 26.40 4.35L26.40 4.35L30.32 10.77L30.32 10.77Q30.35 10.82 30.39 10.81L30.39 10.81L30.39 10.81Q30.42 10.79 30.42 10.74L30.42 10.74L30.42 4.42L30.42 4.42Q30.42 4.20 30.65 4.20L30.65 4.20L31.82 4.20L31.82 4.20Q32.05 4.20 32.05 4.42L32.05 4.42L32.05 13.78L32.05 13.78Q32.05 14 31.82 14L31.82 14L30.67 14L30.67 14Q30.48 14 30.39 13.85L30.39 13.85L26.47 7.39L26.47 7.39Q26.45 7.34 26.41 7.35L26.41 7.35L26.41 7.35Q26.38 7.36 26.38 7.42L26.38 7.42L26.39 13.78L26.39 13.78Q26.39 14 26.17 14L26.17 14L25.00 14ZM37.35 14.11L37.35 14.11Q36.30 14.11 35.50 13.70L35.50 13.70L35.50 13.70Q34.71 13.29 34.27 12.53L34.27 12.53L34.27 12.53Q33.84 11.77 33.84 10.79L33.84 10.79L33.84 7.41L33.84 7.41Q33.84 6.41 34.27 5.66L34.27 5.66L34.27 5.66Q34.71 4.91 35.50 4.50L35.50 4.50L35.50 4.50Q36.30 4.09 37.35 4.09L37.35 4.09L37.35 4.09Q38.39 4.09 39.18 4.49L39.18 4.49L39.18 4.49Q39.97 4.90 40.40 5.60L40.40 5.60L40.40 5.60Q40.84 6.30 40.84 7.18L40.84 7.18L40.84 7.24L40.84 7.24Q40.84 7.46 40.61 7.46L40.61 7.46L39.45 7.46L39.45 7.46Q39.35 7.46 39.29 7.43L39.29 7.43L39.29 7.43Q39.23 7.39 39.23 7.34L39.23 7.34L39.23 7.22L39.23 7.22Q39.23 6.47 38.72 5.98L38.72 5.98L38.72 5.98Q38.21 5.49 37.35 5.49L37.35 5.49L37.35 5.49Q36.50 5.49 35.98 6.00L35.98 6.00L35.98 6.00Q35.46 6.51 35.46 7.35L35.46 7.35L35.46 10.85L35.46 10.85Q35.46 11.69 36.01 12.20L36.01 12.20L36.01 12.20Q36.55 12.71 37.42 12.71L37.42 12.71L37.42 12.71Q38.26 12.71 38.75 12.27L38.75 12.27L38.75 12.27Q39.23 11.83 39.23 11.06L39.23 11.06L39.23 10.21L39.23 10.21Q39.23 10.12 39.14 10.12L39.14 10.12L37.49 10.12L37.49 10.12Q37.27 10.12 37.27 9.90L37.27 9.90L37.27 8.97L37.27 8.97Q37.27 8.75 37.49 8.75L37.49 8.75L40.61 8.75L40.61 8.75Q40.84 8.75 40.84 8.97L40.84 8.97L40.84 10.71L40.84 10.71Q40.84 12.32 39.89 13.22L39.89 13.22L39.89 13.22Q38.95 14.11 37.35 14.11L37.35 14.11ZM48.10 14L48.10 14Q47.91 14 47.84 13.83L47.84 13.83L46.00 9.83L46.00 9.83Q45.99 9.77 45.91 9.77L45.91 9.77L44.27 9.77L44.27 9.77Q44.18 9.77 44.18 9.86L44.18 9.86L44.18 13.78L44.18 13.78Q44.18 14 43.96 14L43.96 14L42.78 14L42.78 14Q42.56 14 42.56 13.78L42.56 13.78L42.56 4.41L42.56 4.41Q42.56 4.19 42.78 4.19L42.78 4.19L46.58 4.19L46.58 4.19Q47.43 4.19 48.09 4.54L48.09 4.54L48.09 4.54Q48.75 4.90 49.11 5.55L49.11 5.55L49.11 5.55Q49.48 6.20 49.48 7.04L49.48 7.04L49.48 7.04Q49.48 8.01 48.98 8.69L48.98 8.69L48.98 8.69Q48.48 9.37 47.61 9.62L47.61 9.62L47.61 9.62Q47.57 9.63 47.56 9.67L47.56 9.67L47.56 9.67Q47.54 9.70 47.57 9.73L47.57 9.73L49.50 13.73L49.53 13.85L49.53 13.85Q49.53 14 49.34 14L49.34 14L48.10 14ZM44.27 5.59L44.27 5.59Q44.18 5.59 44.18 5.67L44.18 5.67L44.18 8.43L44.18 8.43Q44.18 8.51 44.27 8.51L44.27 8.51L46.35 8.51L46.35 8.51Q47.03 8.51 47.44 8.11L47.44 8.11L47.44 8.11Q47.85 7.71 47.85 7.07L47.85 7.07L47.85 7.07Q47.85 6.41 47.44 6.00L47.44 6.00L47.44 6.00Q47.03 5.59 46.35 5.59L46.35 5.59L44.27 5.59ZM57.78 5.38L57.78 5.38Q57.78 5.60 57.55 5.60L57.55 5.60L52.85 5.60L52.85 5.60Q52.77 5.60 52.77 5.68L52.77 5.68L52.77 8.27L52.77 8.27Q52.77 8.36 52.85 8.36L52.85 8.36L55.99 8.36L55.99 8.36Q56.21 8.36 56.21 8.58L56.21 8.58L56.21 9.53L56.21 9.53Q56.21 9.76 55.99 9.76L55.99 9.76L52.85 9.76L52.85 9.76Q52.77 9.76 52.77 9.84L52.77 9.84L52.77 12.52L52.77 12.52Q52.77 12.60 52.85 12.60L52.85 12.60L57.55 12.60L57.55 12.60Q57.78 12.60 57.78 12.82L57.78 12.82L57.78 13.78L57.78 13.78Q57.78 14 57.55 14L57.55 14L51.37 14L51.37 14Q51.14 14 51.14 13.78L51.14 13.78L51.14 4.42L51.14 4.42Q51.14 4.20 51.37 4.20L51.37 4.20L57.55 4.20L57.55 4.20Q57.78 4.20 57.78 4.42L57.78 4.42L57.78 5.38ZM62.58 14.11L62.58 14.11Q61.52 14.11 60.71 13.76L60.71 13.76L60.71 13.76Q59.91 13.41 59.47 12.78L59.47 12.78L59.47 12.78Q59.04 12.14 59.04 11.30L59.04 11.30L59.04 11.00L59.04 11.00Q59.04 10.78 59.26 10.78L59.26 10.78L60.41 10.78L60.41 10.78Q60.63 10.78 60.63 10.99L60.63 10.99L60.63 11.21L60.63 11.21Q60.63 11.86 61.20 12.29L61.20 12.29L61.20 12.29Q61.77 12.71 62.71 12.71L62.71 12.71L62.71 12.71Q63.56 12.71 63.99 12.35L63.99 12.35L63.99 12.35Q64.43 11.98 64.43 11.41L64.43 11.41L64.43 11.41Q64.43 11.02 64.19 10.75L64.19 10.75L64.19 10.75Q63.95 10.47 63.51 10.25L63.51 10.25L63.51 10.25Q63.07 10.02 62.19 9.69L62.19 9.69L62.19 9.69Q61.19 9.32 60.58 9.00L60.58 9.00L60.58 9.00Q59.96 8.68 59.55 8.13L59.55 8.13L59.55 8.13Q59.14 7.57 59.14 6.75L59.14 6.75L59.14 6.75Q59.14 5.52 60.03 4.80L60.03 4.80L60.03 4.80Q60.93 4.09 62.43 4.09L62.43 4.09L62.43 4.09Q63.48 4.09 64.28 4.45L64.28 4.45L64.28 4.45Q65.09 4.82 65.53 5.47L65.53 5.47L65.53 5.47Q65.98 6.12 65.98 6.97L65.98 6.97L65.98 7.15L65.98 7.15Q65.98 7.38 65.76 7.38L65.76 7.38L64.61 7.38L64.61 7.38Q64.51 7.38 64.45 7.33L64.45 7.33L64.45 7.33Q64.39 7.28 64.39 7.21L64.39 7.21L64.39 7.06L64.39 7.06Q64.39 6.40 63.85 5.94L63.85 5.94L63.85 5.94Q63.31 5.49 62.36 5.49L62.36 5.49L62.36 5.49Q61.59 5.49 61.16 5.81L61.16 5.81L61.16 5.81Q60.73 6.13 60.73 6.72L60.73 6.72L60.73 6.72Q60.73 7.14 60.96 7.41L60.96 7.41L60.96 7.41Q61.18 7.67 61.63 7.89L61.63 7.89L61.63 7.89Q62.08 8.11 63.01 8.44L63.01 8.44L63.01 8.44Q64.01 8.82 64.60 9.13L64.60 9.13L64.60 9.13Q65.20 9.44 65.63 9.99L65.63 9.99L65.63 9.99Q66.05 10.54 66.05 11.37L66.05 11.37L66.05 11.37Q66.05 12.18 65.63 12.80L65.63 12.80L65.63 12.80Q65.21 13.43 64.43 13.77L64.43 13.77L64.43 13.77Q63.64 14.11 62.58 14.11L62.58 14.11ZM70.84 14.11L70.84 14.11Q69.78 14.11 68.97 13.76L68.97 13.76L68.97 13.76Q68.17 13.41 67.73 12.78L67.73 12.78L67.73 12.78Q67.30 12.14 67.30 11.30L67.30 11.30L67.30 11.00L67.30 11.00Q67.30 10.78 67.52 10.78L67.52 10.78L68.67 10.78L68.67 10.78Q68.89 10.78 68.89 10.99L68.89 10.99L68.89 11.21L68.89 11.21Q68.89 11.86 69.46 12.29L69.46 12.29L69.46 12.29Q70.03 12.71 70.97 12.71L70.97 12.71L70.97 12.71Q71.82 12.71 72.25 12.35L72.25 12.35L72.25 12.35Q72.69 11.98 72.69 11.41L72.69 11.41L72.69 11.41Q72.69 11.02 72.45 10.75L72.45 10.75L72.45 10.75Q72.21 10.47 71.77 10.25L71.77 10.25L71.77 10.25Q71.33 10.02 70.45 9.69L70.45 9.69L70.45 9.69Q69.45 9.32 68.84 9.00L68.84 9.00L68.84 9.00Q68.22 8.68 67.81 8.13L67.81 8.13L67.81 8.13Q67.40 7.57 67.40 6.75L67.40 6.75L67.40 6.75Q67.40 5.52 68.29 4.80L68.29 4.80L68.29 4.80Q69.19 4.09 70.69 4.09L70.69 4.09L70.69 4.09Q71.74 4.09 72.54 4.45L72.54 4.45L72.54 4.45Q73.35 4.82 73.79 5.47L73.79 5.47L73.79 5.47Q74.24 6.12 74.24 6.97L74.24 6.97L74.24 7.15L74.24 7.15Q74.24 7.38 74.02 7.38L74.02 7.38L72.87 7.38L72.87 7.38Q72.77 7.38 72.71 7.33L72.71 7.33L72.71 7.33Q72.65 7.28 72.65 7.21L72.65 7.21L72.65 7.06L72.65 7.06Q72.65 6.40 72.11 5.94L72.11 5.94L72.11 5.94Q71.57 5.49 70.62 5.49L70.62 5.49L70.62 5.49Q69.85 5.49 69.42 5.81L69.42 5.81L69.42 5.81Q68.99 6.13 68.99 6.72L68.99 6.72L68.99 6.72Q68.99 7.14 69.22 7.41L69.22 7.41L69.22 7.41Q69.44 7.67 69.89 7.89L69.89 7.89L69.89 7.89Q70.34 8.11 71.27 8.44L71.27 8.44L71.27 8.44Q72.27 8.82 72.86 9.13L72.86 9.13L72.86 9.13Q73.46 9.44 73.89 9.99L73.89 9.99L73.89 9.99Q74.31 10.54 74.31 11.37L74.31 11.37L74.31 11.37Q74.31 12.18 73.89 12.80L73.89 12.80L73.89 12.80Q73.47 13.43 72.69 13.77L72.69 13.77L72.69 13.77Q71.90 14.11 70.84 14.11L70.84 14.11ZM79.27 14.14L79.27 14.14Q78.22 14.14 77.41 13.71L77.41 13.71L77.41 13.71Q76.59 13.29 76.15 12.50L76.15 12.50L76.15 12.50Q75.71 11.72 75.71 10.70L75.71 10.70L75.71 7.50L75.71 7.50Q75.71 6.50 76.16 5.72L76.16 5.72L76.16 5.72Q76.61 4.94 77.41 4.52L77.41 4.52L77.41 4.52Q78.22 4.09 79.27 4.09L79.27 4.09L79.27 4.09Q80.33 4.09 81.14 4.52L81.14 4.52L81.14 4.52Q81.94 4.94 82.39 5.72L82.39 5.72L82.39 5.72Q82.84 6.50 82.84 7.50L82.84 7.50L82.84 10.70L82.84 10.70Q82.84 11.72 82.39 12.50L82.39 12.50L82.39 12.50Q81.94 13.29 81.14 13.71L81.14 13.71L81.14 13.71Q80.33 14.14 79.27 14.14L79.27 14.14ZM79.27 12.74L79.27 12.74Q80.15 12.74 80.68 12.19L80.68 12.19L80.68 12.19Q81.21 11.65 81.21 10.75L81.21 10.75L81.21 7.49L81.21 7.49Q81.21 6.58 80.68 6.03L80.68 6.03L80.68 6.03Q80.15 5.49 79.27 5.49L79.27 5.49L79.27 5.49Q78.40 5.49 77.87 6.03L77.87 6.03L77.87 6.03Q77.34 6.58 77.34 7.49L77.34 7.49L77.34 10.75L77.34 10.75Q77.34 11.65 77.87 12.19L77.87 12.19L77.87 12.19Q78.40 12.74 79.27 12.74L79.27 12.74ZM87.79 14.11L87.79 14.11Q86.73 14.11 85.93 13.76L85.93 13.76L85.93 13.76Q85.12 13.41 84.69 12.78L84.69 12.78L84.69 12.78Q84.25 12.14 84.25 11.30L84.25 11.30L84.25 11.00L84.25 11.00Q84.25 10.78 84.48 10.78L84.48 10.78L85.62 10.78L85.62 10.78Q85.85 10.78 85.85 10.99L85.85 10.99L85.85 11.21L85.85 11.21Q85.85 11.86 86.42 12.29L86.42 12.29L86.42 12.29Q86.98 12.71 87.92 12.71L87.92 12.71L87.92 12.71Q88.77 12.71 89.21 12.35L89.21 12.35L89.21 12.35Q89.64 11.98 89.64 11.41L89.64 11.41L89.64 11.41Q89.64 11.02 89.40 10.75L89.40 10.75L89.40 10.75Q89.17 10.47 88.73 10.25L88.73 10.25L88.73 10.25Q88.28 10.02 87.40 9.69L87.40 9.69L87.40 9.69Q86.41 9.32 85.79 9.00L85.79 9.00L85.79 9.00Q85.18 8.68 84.76 8.13L84.76 8.13L84.76 8.13Q84.35 7.57 84.35 6.75L84.35 6.75L84.35 6.75Q84.35 5.52 85.25 4.80L85.25 4.80L85.25 4.80Q86.14 4.09 87.64 4.09L87.64 4.09L87.64 4.09Q88.69 4.09 89.50 4.45L89.50 4.45L89.50 4.45Q90.30 4.82 90.75 5.47L90.75 5.47L90.75 5.47Q91.20 6.12 91.20 6.97L91.20 6.97L91.20 7.15L91.20 7.15Q91.20 7.38 90.97 7.38L90.97 7.38L89.82 7.38L89.82 7.38Q89.73 7.38 89.66 7.33L89.66 7.33L89.66 7.33Q89.60 7.28 89.60 7.21L89.60 7.21L89.60 7.06L89.60 7.06Q89.60 6.40 89.06 5.94L89.06 5.94L89.06 5.94Q88.52 5.49 87.57 5.49L87.57 5.49L87.57 5.49Q86.80 5.49 86.37 5.81L86.37 5.81L86.37 5.81Q85.95 6.13 85.95 6.72L85.95 6.72L85.95 6.72Q85.95 7.14 86.17 7.41L86.17 7.41L86.17 7.41Q86.39 7.67 86.84 7.89L86.84 7.89L86.84 7.89Q87.29 8.11 88.23 8.44L88.23 8.44L88.23 8.44Q89.22 8.82 89.82 9.13L89.82 9.13L89.82 9.13Q90.41 9.44 90.84 9.99L90.84 9.99L90.84 9.99Q91.27 10.54 91.27 11.37L91.27 11.37L91.27 11.37Q91.27 12.18 90.85 12.80L90.85 12.80L90.85 12.80Q90.43 13.43 89.64 13.77L89.64 13.77L89.64 13.77Q88.86 14.11 87.79 14.11L87.79 14.11Z"></path></g> <!----> <g data-v-1084b650="" id="8f74f1f1-d099-561a-febc-e9e29d4e28b0" stroke="none" fill="#ffffff" transform="matrix(0.1691829321207887,0,0,0.1691829321207887,33.58838797830849,124.88623086256845)"><svg xmlns="http://www.w3.org/2000/svg" xmlns:xlink="http://www.w3.org/1999/xlink" version="1.1" x="0px" y="0px" viewBox="0 0 100 100" enable-background="new 0 0 100 100" xml:space="preserve"><g><polygon points="44.094,68.482 88.713,49.997 84.338,39.434 92.342,39.434 92.342,69.295 42.136,69.295 43.674,68.661  "></polygon><polygon points="29.636,38.283 15.857,43.992 15.857,38.283  "></polygon></g><g><path d="M81.79,38.283l-7.053-17.019L33.652,38.283l-13.781,5.709L5.114,50.111l3.737,9.026c0.042-0.023,0.086-0.05,0.126-0.063   c2.64-1.092,5.662,0.16,6.752,2.797c1.09,2.641-0.162,5.662-2.799,6.755c-0.047,0.015-0.092,0.026-0.131,0.045l3.737,9.026   l23.049-9.552l1.541-0.636l0.417-0.171l44.619-18.486L81.79,38.283z M33.477,64.547l1.271-0.537l0.645,1.548l-1.273,0.544   L33.477,64.547z M34.107,62.46l-1.273,0.532l-0.643-1.552l1.273-0.539L34.107,62.46z M32.818,59.351l-1.271,0.54l-0.645-1.557   l1.273-0.532L32.818,59.351z M31.533,56.249l-1.273,0.538l-0.645-1.553l1.273-0.54L31.533,56.249z M30.246,53.146l-1.271,0.534   l-0.645-1.552l1.273-0.533L30.246,53.146z M28.961,50.039l-1.273,0.542l-0.642-1.552l1.271-0.538L28.961,50.039z M27.676,46.937   l-1.268,0.535l-0.65-1.552l1.271-0.538L27.676,46.937z M25.745,42.283l0.645,1.55l-1.273,0.542l-0.638-1.557L25.745,42.283z    M36.679,68.669l-1.273,0.536l-0.457-1.108l-0.186-0.45l1.271-0.532l0.368,0.883L36.679,68.669z"></path></g></svg></g></svg>