<?xml version="1.0" encoding="utf-8"?>
<!-- Generator: Adobe Illustrator 21.0.2, SVG Export Plug-In . SVG Version: 6.00 Build 0)  -->
<svg version="1.1" id="Layer_1" xmlns="http://www.w3.org/2000/svg" xmlns:xlink="http://www.w3.org/1999/xlink" x="0px" y="0px"
	 viewBox="0 0 400 200" style="enable-background:new 0 0 400 200;" xml:space="preserve">
<style type="text/css">
	.st0{fill:#FFFFFF;}
</style>
<g id="_x35_0dea57c-e367-3128-5abe-1c9111415364" transform="matrix(2.5,0,0,2.5,34.63750338554382,156.10624718666077)">
	<path class="st0" d="M2.8,0.3L2.8,0.3C2.8,0.4,2.8,0.4,2.8,0.3L2.8,0.3L2.8,0.3c-0.1,0.1-0.1,0.1,0,0.2l0,0l0,0
		c1.5,0.7,2.2,1.9,2.2,3.7l0,0l0,0c0,1.4-0.5,2.5-1.4,3.2l0,0l0,0C2.7,8.2,1.5,8.5,0,8.5l0,0h-5.5l0,0c-0.2,0-0.4-0.1-0.4-0.4l0,0
		v-15l0,0c0-0.2,0.1-0.4,0.4-0.4l0,0h5.4l0,0c1.6,0,2.9,0.4,3.8,1.1l0,0l0,0c0.9,0.7,1.3,1.8,1.3,3.2l0,0l0,0
		C4.9-1.4,4.2-0.3,2.8,0.3L2.8,0.3z M-3.2-4.9L-3.2-4.9c-0.1,0-0.1,0-0.1,0.1l0,0v4.1l0,0c0,0.1,0,0.1,0.1,0.1l0,0h3l0,0
		c0.8,0,1.4-0.2,1.9-0.6l0,0l0,0C2.1-1.5,2.3-2,2.3-2.7l0,0l0,0c0-0.7-0.2-1.2-0.7-1.6l0,0l0,0C1.2-4.7,0.6-4.9-0.2-4.9l0,0H-3.2z
		 M0,6.3L0,6.3c0.8,0,1.4-0.2,1.8-0.6l0,0l0,0c0.5-0.4,0.7-1,0.7-1.7l0,0l0,0c0-0.7-0.2-1.3-0.7-1.7l0,0l0,0
		C1.3,1.8,0.7,1.6-0.1,1.6l0,0h-3.1l0,0c-0.1,0-0.1,0-0.1,0.1l0,0v4.4l0,0c0,0.1,0,0.1,0.1,0.1l0,0H0z M16.8,8.5L16.8,8.5
		c-0.2,0-0.3-0.1-0.4-0.3l0,0l-2.9-6.4l0,0c0-0.1-0.1-0.1-0.1-0.1l0,0h-2.6l0,0c-0.1,0-0.1,0-0.1,0.1l0,0v6.3l0,0
		c0,0.2-0.1,0.4-0.4,0.4l0,0H8.3l0,0C8.1,8.5,8,8.4,8,8.2l0,0v-15l0,0C8-7,8.1-7.2,8.3-7.2l0,0h6.1l0,0c0.9,0,1.7,0.2,2.4,0.6l0,0
		l0,0c0.7,0.4,1.2,0.9,1.6,1.6l0,0l0,0C18.8-4.3,19-3.5,19-2.6l0,0l0,0c0,1-0.3,1.9-0.8,2.6l0,0l0,0C17.7,0.8,17,1.3,16,1.5l0,0l0,0
		c0,0-0.1,0-0.1,0.1l0,0l0,0c0,0,0,0.1,0,0.1l0,0l3.1,6.4l0,0.2l0,0c0,0.2-0.1,0.2-0.3,0.2l0,0H16.8z M10.7-4.9L10.7-4.9
		c-0.1,0-0.1,0-0.1,0.1l0,0v4.4l0,0c0,0.1,0,0.1,0.1,0.1l0,0H14l0,0c0.7,0,1.3-0.2,1.7-0.6l0,0l0,0c0.4-0.4,0.7-1,0.7-1.7l0,0l0,0
		c0-0.7-0.2-1.3-0.7-1.7l0,0l0,0c-0.4-0.4-1-0.7-1.7-0.7l0,0H10.7z M26.5,8.5L26.5,8.5c-0.2,0-0.4-0.1-0.4-0.4l0,0v-15l0,0
		c0-0.2,0.1-0.4,0.4-0.4l0,0h1.9l0,0c0.2,0,0.4,0.1,0.4,0.4l0,0v15l0,0c0,0.2-0.1,0.4-0.4,0.4l0,0H26.5z M32.4,8.5L32.4,8.5
		c-0.2,0-0.4-0.1-0.4-0.4l0,0v-15l0,0c0-0.2,0.1-0.4,0.4-0.4l0,0h1.8l0,0c0.2,0,0.4,0.1,0.4,0.2l0,0l6.3,10.3l0,0
		c0,0.1,0.1,0.1,0.1,0.1l0,0l0,0c0,0,0-0.1,0-0.1l0,0V-6.8l0,0c0-0.2,0.1-0.4,0.4-0.4l0,0h1.9l0,0c0.2,0,0.4,0.1,0.4,0.4l0,0v15l0,0
		c0,0.2-0.1,0.4-0.4,0.4l0,0h-1.8l0,0c-0.2,0-0.4-0.1-0.4-0.2l0,0L34.7-2l0,0c0-0.1-0.1-0.1-0.1-0.1l0,0l0,0c0,0,0,0,0,0.1l0,0
		l0,10.2l0,0c0,0.2-0.1,0.4-0.4,0.4l0,0H32.4z M52.1,8.7L52.1,8.7c-1.1,0-2.1-0.2-3-0.7l0,0l0,0c-0.8-0.4-1.5-1.1-2-1.9l0,0l0,0
		c-0.5-0.8-0.7-1.7-0.7-2.8l0,0V-2l0,0c0-1.1,0.2-2,0.7-2.8l0,0l0,0c0.5-0.8,1.1-1.4,2-1.9l0,0l0,0c0.9-0.4,1.8-0.7,3-0.7l0,0l0,0
		c1.1,0,2.1,0.2,2.9,0.6l0,0l0,0c0.8,0.4,1.5,1,1.9,1.8l0,0l0,0c0.5,0.7,0.7,1.6,0.7,2.5l0,0v0.1l0,0c0,0.2-0.1,0.4-0.4,0.4l0,0
		h-1.9l0,0c-0.1,0-0.2,0-0.3,0l0,0l0,0c-0.1,0-0.1-0.1-0.1-0.1l0,0v-0.2l0,0c0-0.8-0.3-1.5-0.8-2l0,0l0,0c-0.5-0.5-1.3-0.8-2.2-0.8
		l0,0l0,0c-0.9,0-1.6,0.3-2.2,0.8l0,0l0,0c-0.6,0.5-0.8,1.3-0.8,2.2l0,0v5.6l0,0c0,0.9,0.3,1.6,0.9,2.2l0,0l0,0
		c0.6,0.5,1.3,0.8,2.3,0.8l0,0l0,0c0.9,0,1.6-0.2,2.1-0.7l0,0l0,0c0.5-0.5,0.8-1.1,0.8-1.9l0,0V2.5l0,0c0-0.1,0-0.1-0.1-0.1l0,0
		h-2.6l0,0C52.1,2.3,52,2.2,52,2l0,0V0.5l0,0c0-0.2,0.1-0.4,0.4-0.4l0,0h5l0,0c0.2,0,0.4,0.1,0.4,0.4l0,0v2.8l0,0
		c0,1.7-0.5,3.1-1.5,4l0,0l0,0C55.2,8.2,53.8,8.7,52.1,8.7L52.1,8.7z M69.3,8.5L69.3,8.5c-0.2,0-0.3-0.1-0.4-0.3l0,0l-2.9-6.4l0,0
		c0-0.1-0.1-0.1-0.1-0.1l0,0h-2.6l0,0c-0.1,0-0.1,0-0.1,0.1l0,0v6.3l0,0c0,0.2-0.1,0.4-0.4,0.4l0,0h-1.9l0,0c-0.2,0-0.4-0.1-0.4-0.4
		l0,0v-15l0,0c0-0.2,0.1-0.4,0.4-0.4l0,0h6.1l0,0c0.9,0,1.7,0.2,2.4,0.6l0,0l0,0C70-6.2,70.5-5.7,70.9-5l0,0l0,0
		c0.4,0.7,0.6,1.5,0.6,2.4l0,0l0,0c0,1-0.3,1.9-0.8,2.6l0,0l0,0c-0.5,0.7-1.3,1.2-2.2,1.5l0,0l0,0c0,0-0.1,0-0.1,0.1l0,0l0,0
		c0,0,0,0.1,0,0.1l0,0l3.1,6.4l0,0.2l0,0c0,0.2-0.1,0.2-0.3,0.2l0,0H69.3z M63.1-4.9L63.1-4.9c-0.1,0-0.1,0-0.1,0.1l0,0v4.4l0,0
		c0,0.1,0,0.1,0.1,0.1l0,0h3.3l0,0c0.7,0,1.3-0.2,1.7-0.6l0,0l0,0c0.4-0.4,0.7-1,0.7-1.7l0,0l0,0c0-0.7-0.2-1.3-0.7-1.7l0,0l0,0
		c-0.4-0.4-1-0.7-1.7-0.7l0,0H63.1z M84.7-5.2L84.7-5.2c0,0.2-0.1,0.4-0.4,0.4l0,0h-7.5l0,0c-0.1,0-0.1,0-0.1,0.1l0,0v4.1l0,0
		c0,0.1,0,0.1,0.1,0.1l0,0h5l0,0c0.2,0,0.4,0.1,0.4,0.4l0,0v1.5l0,0c0,0.2-0.1,0.4-0.4,0.4l0,0h-5l0,0c-0.1,0-0.1,0-0.1,0.1l0,0v4.3
		l0,0c0,0.1,0,0.1,0.1,0.1l0,0h7.5l0,0c0.2,0,0.4,0.1,0.4,0.4l0,0v1.5l0,0c0,0.2-0.1,0.4-0.4,0.4l0,0h-9.9l0,0
		c-0.2,0-0.4-0.1-0.4-0.4l0,0v-15l0,0c0-0.2,0.1-0.4,0.4-0.4l0,0h9.9l0,0c0.2,0,0.4,0.1,0.4,0.4l0,0V-5.2z M92.4,8.7L92.4,8.7
		c-1.1,0-2.1-0.2-3-0.6l0,0l0,0c-0.9-0.4-1.5-0.9-2-1.6l0,0l0,0c-0.5-0.7-0.7-1.5-0.7-2.4l0,0V3.7l0,0c0-0.2,0.1-0.4,0.4-0.4l0,0
		h1.8l0,0c0.2,0,0.4,0.1,0.4,0.3l0,0v0.4l0,0c0,0.7,0.3,1.3,0.9,1.7l0,0l0,0c0.6,0.4,1.4,0.7,2.4,0.7l0,0l0,0c0.9,0,1.6-0.2,2-0.6
		l0,0l0,0c0.5-0.4,0.7-0.9,0.7-1.5l0,0l0,0c0-0.4-0.1-0.8-0.4-1.1l0,0l0,0c-0.3-0.3-0.6-0.6-1.1-0.8l0,0l0,0
		c-0.5-0.2-1.2-0.5-2.1-0.9l0,0l0,0c-1.1-0.4-1.9-0.8-2.6-1.1l0,0l0,0c-0.7-0.3-1.2-0.8-1.6-1.4l0,0l0,0c-0.4-0.6-0.7-1.3-0.7-2.2
		l0,0l0,0c0-1.3,0.5-2.3,1.4-3.1l0,0l0,0c1-0.8,2.2-1.1,3.8-1.1l0,0l0,0c1.1,0,2.1,0.2,3,0.6l0,0l0,0c0.9,0.4,1.5,0.9,2,1.6l0,0l0,0
		c0.5,0.7,0.7,1.5,0.7,2.4l0,0v0.3l0,0c0,0.2-0.1,0.4-0.4,0.4l0,0h-1.8l0,0c-0.1,0-0.2,0-0.3-0.1l0,0l0,0c-0.1-0.1-0.1-0.1-0.1-0.2
		l0,0v-0.2l0,0c0-0.7-0.3-1.3-0.9-1.8l0,0l0,0c-0.6-0.5-1.4-0.7-2.4-0.7l0,0l0,0c-0.8,0-1.5,0.2-1.9,0.5l0,0l0,0
		c-0.5,0.3-0.7,0.8-0.7,1.5l0,0l0,0c0,0.4,0.1,0.8,0.4,1.1l0,0l0,0c0.2,0.3,0.6,0.5,1.1,0.8l0,0l0,0c0.5,0.2,1.2,0.5,2.2,0.9l0,0
		l0,0C94.1,0,95,0.4,95.6,0.7l0,0l0,0c0.6,0.3,1.2,0.8,1.6,1.4l0,0l0,0c0.4,0.6,0.7,1.3,0.7,2.2l0,0l0,0c0,0.9-0.2,1.6-0.7,2.3l0,0
		l0,0c-0.4,0.7-1.1,1.2-1.9,1.5l0,0l0,0C94.5,8.5,93.5,8.7,92.4,8.7L92.4,8.7z M105.6,8.7L105.6,8.7c-1.1,0-2.1-0.2-3-0.6l0,0l0,0
		c-0.9-0.4-1.5-0.9-2-1.6l0,0l0,0c-0.5-0.7-0.7-1.5-0.7-2.4l0,0V3.7l0,0c0-0.2,0.1-0.4,0.4-0.4l0,0h1.8l0,0c0.2,0,0.4,0.1,0.4,0.3
		l0,0v0.4l0,0c0,0.7,0.3,1.3,0.9,1.7l0,0l0,0c0.6,0.4,1.4,0.7,2.4,0.7l0,0l0,0c0.9,0,1.6-0.2,2-0.6l0,0l0,0c0.5-0.4,0.7-0.9,0.7-1.5
		l0,0l0,0c0-0.4-0.1-0.8-0.4-1.1l0,0l0,0c-0.3-0.3-0.6-0.6-1.1-0.8l0,0l0,0c-0.5-0.2-1.2-0.5-2.1-0.9l0,0l0,0
		c-1.1-0.4-1.9-0.8-2.6-1.1l0,0l0,0c-0.7-0.3-1.2-0.8-1.6-1.4l0,0l0,0c-0.4-0.6-0.7-1.3-0.7-2.2l0,0l0,0c0-1.3,0.5-2.3,1.4-3.1l0,0
		l0,0c1-0.8,2.2-1.1,3.8-1.1l0,0l0,0c1.1,0,2.1,0.2,3,0.6l0,0l0,0c0.9,0.4,1.5,0.9,2,1.6l0,0l0,0c0.5,0.7,0.7,1.5,0.7,2.4l0,0v0.3
		l0,0c0,0.2-0.1,0.4-0.4,0.4l0,0h-1.8l0,0c-0.1,0-0.2,0-0.3-0.1l0,0l0,0c-0.1-0.1-0.1-0.1-0.1-0.2l0,0v-0.2l0,0
		c0-0.7-0.3-1.3-0.9-1.8l0,0l0,0c-0.6-0.5-1.4-0.7-2.4-0.7l0,0l0,0c-0.8,0-1.5,0.2-1.9,0.5l0,0l0,0c-0.5,0.3-0.7,0.8-0.7,1.5l0,0
		l0,0c0,0.4,0.1,0.8,0.4,1.1l0,0l0,0c0.2,0.3,0.6,0.5,1.1,0.8l0,0l0,0c0.5,0.2,1.2,0.5,2.2,0.9l0,0l0,0c1.1,0.4,1.9,0.8,2.5,1.1l0,0
		l0,0c0.6,0.3,1.2,0.8,1.6,1.4l0,0l0,0c0.4,0.6,0.7,1.3,0.7,2.2l0,0l0,0c0,0.9-0.2,1.6-0.7,2.3l0,0l0,0c-0.4,0.7-1.1,1.2-1.9,1.5
		l0,0l0,0C107.7,8.5,106.7,8.7,105.6,8.7L105.6,8.7z M119.1,8.7L119.1,8.7c-1.1,0-2.1-0.2-3-0.7l0,0l0,0c-0.9-0.4-1.5-1.1-2-1.9l0,0
		l0,0c-0.5-0.8-0.7-1.8-0.7-2.9l0,0v-5.1l0,0c0-1.1,0.2-2,0.7-2.8l0,0l0,0c0.5-0.8,1.1-1.5,2-1.9l0,0l0,0c0.9-0.5,1.9-0.7,3-0.7l0,0
		l0,0c1.1,0,2.1,0.2,3,0.7l0,0l0,0c0.9,0.4,1.5,1.1,2,1.9l0,0l0,0c0.5,0.8,0.7,1.8,0.7,2.8l0,0v5.1l0,0c0,1.1-0.2,2-0.7,2.9l0,0l0,0
		c-0.5,0.8-1.1,1.5-2,1.9l0,0l0,0C121.2,8.5,120.2,8.7,119.1,8.7L119.1,8.7z M119.1,6.5L119.1,6.5c0.9,0,1.7-0.3,2.3-0.9l0,0l0,0
		c0.6-0.6,0.8-1.3,0.8-2.3l0,0v-5.2l0,0c0-1-0.3-1.7-0.8-2.3l0,0l0,0c-0.6-0.6-1.3-0.9-2.3-0.9l0,0l0,0c-0.9,0-1.7,0.3-2.2,0.9l0,0
		l0,0c-0.6,0.6-0.8,1.4-0.8,2.3l0,0v5.2l0,0c0,1,0.3,1.7,0.8,2.3l0,0l0,0C117.4,6.2,118.1,6.5,119.1,6.5L119.1,6.5z M132.7,8.7
		L132.7,8.7c-1.1,0-2.1-0.2-3-0.6l0,0l0,0c-0.9-0.4-1.5-0.9-2-1.6l0,0l0,0c-0.5-0.7-0.7-1.5-0.7-2.4l0,0V3.7l0,0
		c0-0.2,0.1-0.4,0.4-0.4l0,0h1.8l0,0c0.2,0,0.4,0.1,0.4,0.3l0,0v0.4l0,0c0,0.7,0.3,1.3,0.9,1.7l0,0l0,0c0.6,0.4,1.4,0.7,2.4,0.7l0,0
		l0,0c0.9,0,1.6-0.2,2.1-0.6l0,0l0,0c0.5-0.4,0.7-0.9,0.7-1.5l0,0l0,0c0-0.4-0.1-0.8-0.4-1.1l0,0l0,0c-0.2-0.3-0.6-0.6-1.1-0.8l0,0
		l0,0C133.7,2.3,133,2,132,1.6l0,0l0,0c-1.1-0.4-1.9-0.8-2.6-1.1l0,0l0,0c-0.6-0.3-1.2-0.8-1.6-1.4l0,0l0,0
		c-0.4-0.6-0.7-1.3-0.7-2.2l0,0l0,0c0-1.3,0.5-2.3,1.4-3.1l0,0l0,0c0.9-0.8,2.2-1.1,3.8-1.1l0,0l0,0c1.1,0,2.1,0.2,3,0.6l0,0l0,0
		c0.9,0.4,1.5,0.9,2,1.6l0,0l0,0c0.5,0.7,0.7,1.5,0.7,2.4l0,0v0.3l0,0c0,0.2-0.1,0.4-0.4,0.4l0,0h-1.8l0,0c-0.1,0-0.2,0-0.3-0.1l0,0
		l0,0c-0.1-0.1-0.1-0.1-0.1-0.2l0,0v-0.2l0,0c0-0.7-0.3-1.3-0.9-1.8l0,0l0,0c-0.6-0.5-1.4-0.7-2.4-0.7l0,0l0,0
		c-0.8,0-1.5,0.2-1.9,0.5l0,0l0,0c-0.4,0.3-0.7,0.8-0.7,1.5l0,0l0,0c0,0.4,0.1,0.8,0.4,1.1l0,0l0,0c0.2,0.3,0.6,0.5,1.1,0.8l0,0l0,0
		c0.5,0.2,1.2,0.5,2.2,0.9l0,0l0,0c1.1,0.4,1.9,0.8,2.5,1.1l0,0l0,0c0.6,0.3,1.2,0.8,1.6,1.4l0,0l0,0c0.5,0.6,0.7,1.3,0.7,2.2l0,0
		l0,0c0,0.9-0.2,1.6-0.7,2.3l0,0l0,0c-0.4,0.7-1.1,1.2-1.9,1.5l0,0l0,0C134.8,8.5,133.8,8.7,132.7,8.7L132.7,8.7z"/>
</g>
<g id="_x32_eef1779-04d3-223f-acaf-546d5e64c417" transform="matrix(0.29681216161541873,0,0,0.29681216161541873,102.79480695346834,88.05101018696263)">
	<g>
		<polygon class="st0" points="305.3,6.9 519.1,-81.7 498.1,-132.3 536.5,-132.3 536.5,10.8 295.9,10.8 303.3,7.8 		"/>
		<polygon class="st0" points="236,-137.8 170,-110.5 170,-137.8 		"/>
	</g>
	<g>
		<path class="st0" d="M485.9-137.8l-33.8-81.6l-196.9,81.6l-66,27.4l-70.7,29.3l17.9,43.3c0.2-0.1,0.4-0.2,0.6-0.3
			c12.7-5.2,27.1,0.8,32.4,13.4c5.2,12.7-0.8,27.1-13.4,32.4c-0.2,0.1-0.4,0.1-0.6,0.2l17.9,43.3L283.7,5.3l7.4-3l2-0.8l213.8-88.6
			L485.9-137.8z M254.4-12l6.1-2.6l3.1,7.4l-6.1,2.6L254.4-12z M257.4-22l-6.1,2.5l-3.1-7.4l6.1-2.6L257.4-22z M251.3-36.9l-6.1,2.6
			l-3.1-7.5l6.1-2.5L251.3-36.9z M245.1-51.7l-6.1,2.6l-3.1-7.4l6.1-2.6L245.1-51.7z M238.9-66.6l-6.1,2.6l-3.1-7.4l6.1-2.6
			L238.9-66.6z M232.8-81.5l-6.1,2.6l-3.1-7.4l6.1-2.6L232.8-81.5z M226.6-96.4l-6.1,2.6l-3.1-7.4l6.1-2.6L226.6-96.4z M217.4-118.7
			l3.1,7.4l-6.1,2.6l-3.1-7.5L217.4-118.7z M269.8,7.8l-6.1,2.6L261.5,5l-0.9-2.2l6.1-2.5l1.8,4.2L269.8,7.8z"/>
	</g>
</g>
</svg>
