<svg width="300" height="100" xmlns="http://www.w3.org/2000/svg">
 <!---->
 <defs>
  <linearGradient y2="0%" x2="100%" y1="0%" x1="0%" id="6b36009c-7fe2-8527-f0f2-5b5c4c5c44b0" gradientTransform="rotate(25)">
   <stop stop-color=" rgb(66, 30, 86)" offset="0%"/>
   <stop stop-color=" rgb(188, 96, 131)" offset="100%"/>
  </linearGradient>
 </defs>
 <!---->
 <!---->
 <g>
  <title>background</title>
  <rect fill="none" id="canvas_background" height="102" width="302" y="-1" x="-1"/>
 </g>
 <g>
  <title>Layer 1</title>
  <g transform="matrix(2.704412317276001,0,0,2.704412317276001,61.08175697329064,151.2780233439407) " fill="#000000" id="b216352e-48aa-eeab-525b-ba6ed3693218">
   <path id="svg_2" d="m8.120081,-32.813625l1.94,-10.98l4.56,0l-0.13,7.66l2.58,-7.66l4.59,0l-1.93,10.98l-3.08,0l0.56,-3.39l1.23,-5.01l-0.09,0l-3.25,8.4l-2.32,0l-0.28,-8.4l-0.13,0l-0.54,5.01l-0.63,3.39l-3.08,0zm17.39,-8.3l0,0q1.47,0 2.28,0.58l0,0l0,0q0.81,0.58 0.81,1.82l0,0l0,0q0,0.35 -0.08,0.79l0,0l-0.9,5.11l-2.57,0l0.07,-1.03l-0.16,0l0,0q-0.22,0.55 -0.56,0.81l0,0l0,0q-0.34,0.27 -0.64,0.33l0,0l0,0q-0.31,0.07 -0.61,0.07l0,0l0,0q-0.93,0 -1.43,-0.41l0,0l0,0q-0.5,-0.4 -0.5,-1.22l0,0l0,0q0,-0.29 0.05,-0.57l0,0l0,0q0.2,-1.13 1.2,-1.92l0,0l0,0q1.12,-0.88 3.27,-1.34l0,0l0,-0.01l0,0q0.17,-0.44 0.17,-0.66l0,0l0,0q0,-0.18 -0.12,-0.27l0,0l0,0q-0.12,-0.1 -0.38,-0.1l0,0l0,0q-0.33,0 -0.6,0.19l0,0l0,0q-0.28,0.18 -0.45,0.45l0,0l0,0q-0.17,0.28 -0.24,0.57l0,0l-2.1,-0.96l0,0q0.38,-1.13 1.31,-1.68l0,0l0,0q0.93,-0.55 2.18,-0.55l0,0zm-1.24,6.54l0,0q0.21,0 0.47,-0.16l0,0l0,0q0.25,-0.16 0.44,-0.43l0,0l0.19,-1.1l0,0q-0.4,0.09 -0.71,0.33l0,0l0,0q-0.32,0.23 -0.51,0.53l0,0l0,0q-0.18,0.29 -0.18,0.53l0,0l0,0q0,0.15 0.08,0.23l0,0l0,0q0.08,0.07 0.22,0.07l0,0zm4.61,1.76l1.44,-8.15l2.44,0l-0.06,1.18l0.13,0l0,0q0.3,-0.71 0.68,-1.02l0,0l0,0q0.38,-0.31 0.9,-0.31l0,0l0,0q0.32,0 0.83,0.15l0,0l-0.5,2.76l0,0q-0.23,-0.05 -0.5,-0.05l0,0l0,0q-0.63,0 -1.09,0.44l0,0l0,0q-0.45,0.43 -0.62,1.38l0,0l-0.64,3.62l-3.01,0zm14.99,-8.15l-2.72,2.83l1.32,5.32l-3.14,0l-0.52,-3.33l-0.63,0.38l-0.54,2.95l-3.01,0l1.94,-10.98l3,0l-1,5.51l2.12,-2.68l3.18,0zm3.66,-0.15l0,0q1.5,0 2.24,0.72l0,0l0,0q0.74,0.73 0.74,2.03l0,0l0,0q0,0.48 -0.09,0.96l0,0l0,0q-0.09,0.53 -0.29,1.19l0,0l-3.91,0l0,0q-0.08,0.31 -0.08,0.55l0,0l0,0q0,0.38 0.19,0.57l0,0l0,0q0.19,0.18 0.49,0.18l0,0l0,0q0.41,0 0.71,-0.24l0,0l0,0q0.31,-0.24 0.47,-0.67l0,0l2.1,0.64l0,0q-0.39,0.99 -0.92,1.55l0,0l0,0q-0.54,0.56 -1.17,0.78l0,0l0,0q-0.63,0.22 -1.41,0.22l0,0l0,0q-0.92,0 -1.65,-0.34l0,0l0,0q-0.72,-0.34 -1.15,-1.06l0,0l0,0q-0.43,-0.72 -0.43,-1.82l0,0l0,0q0,-0.55 0.11,-1.16l0,0l0,0q0.74,-4.1 4.05,-4.1l0,0zm0.14,2.13l0,0q-0.43,0 -0.7,0.28l0,0l0,0q-0.27,0.27 -0.38,0.7l0,0l1.51,0l0,0q0.05,-0.33 0.05,-0.46l0,0l0,0q0,-0.25 -0.11,-0.38l0,0l0,0q-0.11,-0.14 -0.37,-0.14l0,0zm5.7,6.17l0,0q-1.09,0 -1.58,-0.45l0,0l0,0q-0.49,-0.44 -0.49,-1.41l0,0l0,0q0,-0.46 0.1,-1.04l0,0l0.59,-3.4l-0.79,0l0.33,-1.85l1.04,0l0.97,-1.87l2.1,0l-0.33,1.87l1.28,0l-0.33,1.85l-1.28,0l-0.5,2.84l0,0q-0.09,0.54 -0.09,0.76l0,0l0,0q0,0.19 0.07,0.27l0,0l0,0q0.06,0.09 0.21,0.11l0,0l0,0q0.14,0.02 0.46,0.02l0,0l0.5,0l-0.4,2.3l-1.86,0zm2.44,2.83l1.93,-10.98l2.54,0l-0.13,1.42l0.12,0l0,0q0.28,-0.73 0.87,-1.15l0,0l0,0q0.59,-0.42 1.27,-0.42l0,0l0,0q1.08,0 1.68,0.71l0,0l0,0q0.59,0.72 0.59,2.16l0,0l0,0q0,0.71 -0.15,1.57l0,0l0,0q-0.24,1.37 -0.7,2.27l0,0l0,0q-0.45,0.91 -1.02,1.34l0,0l0,0q-0.58,0.43 -1.2,0.43l0,0l0,0q-0.92,0 -1.43,-0.41l0,0l0,0q-0.5,-0.41 -0.56,-1.14l0,0l-0.15,0l-0.74,4.2l-2.92,0zm4.48,-5.12l0,0q0.43,0 0.76,-0.52l0,0l0,0q0.33,-0.52 0.51,-1.52l0,0l0,0q0.09,-0.56 0.09,-0.88l0,0l0,0q0,-0.33 -0.09,-0.48l0,0l0,0q-0.09,-0.15 -0.29,-0.15l0,0l0,0q-0.45,0 -0.78,0.5l0,0l0,0q-0.32,0.49 -0.48,1.43l0,0l0,0q-0.11,0.64 -0.11,0.97l0,0l0,0q0,0.33 0.09,0.49l0,0l0,0q0.1,0.16 0.3,0.16l0,0zm4.6,2.29l1.94,-10.98l3.01,0l-1.94,10.98l-3.01,0zm8.62,-8.3l0,0q1.47,0 2.27,0.58l0,0l0,0q0.81,0.58 0.81,1.82l0,0l0,0q0,0.35 -0.08,0.79l0,0l-0.9,5.11l-2.57,0l0.08,-1.03l-0.17,0l0,0q-0.22,0.55 -0.56,0.81l0,0l0,0q-0.34,0.27 -0.64,0.33l0,0l0,0q-0.3,0.07 -0.61,0.07l0,0l0,0q-0.93,0 -1.43,-0.41l0,0l0,0q-0.5,-0.4 -0.5,-1.22l0,0l0,0q0,-0.29 0.05,-0.57l0,0l0,0q0.2,-1.13 1.21,-1.92l0,0l0,0q1.12,-0.88 3.26,-1.34l0,0l0.01,-0.01l0,0q0.16,-0.44 0.16,-0.66l0,0l0,0q0,-0.18 -0.12,-0.27l0,0l0,0q-0.12,-0.1 -0.38,-0.1l0,0l0,0q-0.32,0 -0.6,0.19l0,0l0,0q-0.27,0.18 -0.44,0.45l0,0l0,0q-0.18,0.28 -0.24,0.57l0,0l-2.11,-0.96l0,0q0.39,-1.13 1.32,-1.68l0,0l0,0q0.93,-0.55 2.18,-0.55l0,0zm-1.25,6.54l0,0q0.21,0 0.47,-0.16l0,0l0,0q0.26,-0.16 0.45,-0.43l0,0l0.18,-1.1l0,0q-0.39,0.09 -0.71,0.33l0,0l0,0q-0.32,0.23 -0.5,0.53l0,0l0,0q-0.19,0.29 -0.19,0.53l0,0l0,0q0,0.15 0.08,0.23l0,0l0,0q0.09,0.07 0.22,0.07l0,0zm6.05,4.94l0,0q-0.71,0 -1.09,-0.08l0,0l0,0q-0.38,-0.08 -0.77,-0.23l0,0l0.69,-1.77l0,0q0.27,0.06 0.52,0.06l0,0l0,0q0.6,0 0.94,-0.27l0,0l0,0q0.33,-0.28 0.55,-0.89l0,0l-0.78,0l-0.78,-8.15l3.02,0l0,3.2l-0.15,2.22l0.12,0l0.6,-2.22l1.15,-3.2l3.07,0l-3.66,8.25l0,0q-1.36,3.08 -3.43,3.08l0,0z"/>
  </g>
  <g transform="matrix(0.7446016903510776,0,0,0.7446016903510776,-75.6441318406661,402.87167737615573) " fill="url(#6b36009c-7fe2-8527-f0f2-5b5c4c5c44b0)" id="446dd559-a1e2-b2e4-d54f-f8d6cf72b307">
   <svg y="-525.923358" x="20.360521" id="svg_3" viewBox="0 0 100 100">
    <g id="svg_4">
     <path id="svg_5" d="m63.646,41.283c-12.335,0 -22.354,10.021 -22.354,22.359c0,12.337 10.018,22.358 22.354,22.358c12.334,0 22.354,-10.02 22.354,-22.358c0,-12.338 -10.02,-22.359 -22.354,-22.359zm0,1.512c11.524,0 20.843,9.32 20.843,20.847c0,11.526 -9.319,20.891 -20.843,20.891c-11.525,0 -20.843,-9.365 -20.843,-20.891c0,-11.527 9.318,-20.847 20.843,-20.847z"/>
     <path id="svg_6" d="m38.225,14.08a22.398,22.398 0 0 0 -8.844,1.022c-11.723,3.838 -18.103,16.5 -14.266,28.226c3.838,11.725 16.453,18.106 28.177,14.269a0.75,0.75 0 1 0 -0.445,-1.423c-10.953,3.586 -22.724,-2.38 -26.31,-13.335c-3.584,-10.955 2.38,-22.684 13.333,-26.27c10.953,-3.585 22.725,2.336 26.31,13.29a20.877,20.877 0 0 1 0.133,12.491a0.766,0.766 0 1 0 1.467,0.445a22.353,22.353 0 0 0 -0.178,-13.38c-2.878,-8.794 -10.698,-14.603 -19.377,-15.335zm26.235,37.724a0.75,0.75 0 0 0 -0.375,0.219l-15.186,15.187a0.75,0.75 0 0 0 0,1.063l10.124,10.127a0.751,0.751 0 1 0 1.062,-1.063l-9.593,-9.594l14.405,-14.408l8.406,0.594l0.687,8.813a0.753,0.753 0 1 0 1.5,-0.125l-0.781,-9.47a0.75,0.75 0 0 0 -0.688,-0.687l-9.343,-0.656a0.75,0.75 0 0 0 -0.218,0z"/>
     <path id="svg_7" d="m74.209,62.149l-15.186,15.188l1.062,1.063l15.186,-15.19l-1.061,-1.06l-0.001,-0.001zm-4.597,-7.401a2.903,2.903 0 0 0 -2.86,2.918a2.903,2.903 0 0 0 2.917,2.86a2.903,2.903 0 0 0 2.86,-2.917a2.903,2.903 0 0 0 -2.917,-2.86l0,-0.001zm0.015,1.512a1.36,1.36 0 0 1 1.392,1.365a1.362,1.362 0 0 1 -1.365,1.391a1.36,1.36 0 0 1 -1.39,-1.364a1.361,1.361 0 0 1 1.363,-1.392zm-47.537,-30.659a0.78,0.78 0 0 0 -0.72,0.782a0.78,0.78 0 0 0 0.782,0.719l3.5,0l3.905,15.438c0.082,0.317 0.392,0.56 0.719,0.563l16.248,0a0.773,0.773 0 0 0 0.688,-0.5c1.407,-4.024 2.695,-8 4.062,-12.001c0.16,-0.454 -0.238,-1.008 -0.719,-1l-20.28,0c-0.395,-0.006 -0.76,0.354 -0.76,0.75a0.78,0.78 0 0 0 0.76,0.75l19.249,0l-0.844,2.5l-15.717,0a0.78,0.78 0 0 0 -0.725,0.782a0.78,0.78 0 0 0 0.788,0.718l15.123,0l-0.844,2.5l-11.905,0a0.782,0.782 0 0 0 -0.687,0.813c0.033,0.393 0.42,0.72 0.812,0.688l11.28,0l-0.843,2.5l-15.124,0l-3.906,-15.408a0.773,0.773 0 0 0 -0.718,-0.594l-4.125,0l0.001,0zm57.38,50.674a0.753,0.753 0 0 0 0.125,1.5l4.062,0a0.75,0.75 0 1 0 0,-1.5l-4.062,0a0.75,0.75 0 0 0 -0.125,0zm-49.288,-50.674a0.754,0.754 0 0 0 0.156,1.5l4.062,0a0.75,0.75 0 1 0 0,-1.5l-4.062,0a0.75,0.75 0 0 0 -0.156,0z"/>
    </g>
   </svg>
  </g>
 </g>
</svg>