<svg width="207" height="52" viewBox="0 0 207 52" fill="none" xmlns="http://www.w3.org/2000/svg">
<path d="M36.3555 26.58L40.6235 2.42401H50.6555L50.3695 19.276L56.0455 2.42401H66.1435L61.8975 26.58H55.1215L56.3535 19.122L59.0595 8.10001H58.8615L51.7115 26.58H46.6075L45.9915 8.10001H45.7055L44.5175 19.122L43.1315 26.58H36.3555ZM74.6135 8.32001C76.7695 8.32001 78.4415 8.74534 79.6295 9.59601C80.8175 10.4467 81.4115 11.7813 81.4115 13.6C81.4115 14.1133 81.3528 14.6927 81.2355 15.338L79.2555 26.58H73.6015L73.7555 24.314H73.4035C73.0808 25.1207 72.6701 25.7147 72.1715 26.096C71.6728 26.492 71.2035 26.734 70.7635 26.822C70.3088 26.9247 69.8615 26.976 69.4215 26.976C68.0575 26.976 67.0088 26.6753 66.2755 26.074C65.5421 25.4873 65.1755 24.5927 65.1755 23.39C65.1755 22.9647 65.2121 22.5467 65.2855 22.136C65.5788 20.4787 66.4588 19.0707 67.9255 17.912C69.5681 16.6213 71.9661 15.6387 75.1195 14.964V14.942C75.3688 14.2967 75.4935 13.8127 75.4935 13.49C75.4935 13.226 75.4055 13.028 75.2295 12.896C75.0535 12.7493 74.7748 12.676 74.3935 12.676C73.9095 12.676 73.4695 12.8153 73.0735 13.094C72.6628 13.358 72.3328 13.688 72.0835 14.084C71.8341 14.4947 71.6581 14.9127 71.5555 15.338L66.9355 13.226C67.4928 11.5687 68.4535 10.3367 69.8175 9.53001C71.1815 8.72335 72.7801 8.32001 74.6135 8.32001ZM71.8855 22.708C72.1935 22.708 72.5381 22.5907 72.9195 22.356C73.2861 22.1213 73.6088 21.806 73.8875 21.41L74.3055 18.99C73.7188 19.122 73.1981 19.364 72.7435 19.716C72.2741 20.0533 71.9001 20.442 71.6215 20.882C71.3575 21.3073 71.2255 21.696 71.2255 22.048C71.2255 22.268 71.2841 22.4367 71.4015 22.554C71.5188 22.6567 71.6801 22.708 71.8855 22.708ZM82.0275 26.58L85.1955 8.65001H90.5635L90.4315 11.246H90.7175C91.1575 10.2047 91.6561 9.45668 92.2135 9.00201C92.7708 8.54734 93.4308 8.32001 94.1935 8.32001C94.6628 8.32001 95.2715 8.43001 96.0195 8.65001L94.9195 14.722C94.5821 14.6487 94.2155 14.612 93.8195 14.612C92.8955 14.612 92.0961 14.9347 91.4215 15.58C90.7615 16.2107 90.3068 17.2227 90.0575 18.616L88.6495 26.58H82.0275ZM115.005 8.65001L109.021 14.876L111.925 26.58H105.017L103.873 19.254L102.487 20.09L101.299 26.58H94.6775L98.9455 2.42401H105.545L103.345 14.546L108.009 8.65001H115.005ZM123.057 8.32001C125.257 8.32001 126.9 8.84801 127.985 9.90401C129.071 10.9747 129.613 12.4633 129.613 14.37C129.613 15.074 129.547 15.778 129.415 16.482C129.283 17.2593 129.071 18.132 128.777 19.1H120.175C120.058 19.5547 119.999 19.958 119.999 20.31C119.999 20.8673 120.139 21.2853 120.417 21.564C120.696 21.828 121.055 21.96 121.495 21.96C122.097 21.96 122.617 21.784 123.057 21.432C123.512 21.08 123.857 20.5887 124.091 19.958L128.711 21.366C128.139 22.818 127.465 23.9547 126.687 24.776C125.895 25.5973 125.037 26.1693 124.113 26.492C123.189 26.8147 122.155 26.976 121.011 26.976C119.662 26.976 118.452 26.7267 117.381 26.228C116.325 25.7293 115.482 24.952 114.851 23.896C114.221 22.84 113.905 21.5053 113.905 19.892C113.905 19.0853 113.986 18.2347 114.147 17.34C115.233 11.3267 118.203 8.32001 123.057 8.32001ZM123.365 13.006C122.735 13.006 122.221 13.2113 121.825 13.622C121.429 14.018 121.151 14.5313 120.989 15.162H124.311C124.385 14.678 124.421 14.3407 124.421 14.15C124.421 13.7833 124.341 13.5047 124.179 13.314C124.018 13.1087 123.747 13.006 123.365 13.006ZM135.905 26.58C134.307 26.58 133.148 26.25 132.429 25.59C131.711 24.9447 131.351 23.9107 131.351 22.488C131.351 21.8133 131.425 21.0507 131.571 20.2L132.869 12.72H131.131L131.857 8.65001H134.145L136.279 4.53601H140.899L140.173 8.65001H142.989L142.263 12.72H139.447L138.347 18.968C138.215 19.76 138.149 20.3173 138.149 20.64C138.149 20.9187 138.201 21.1167 138.303 21.234C138.391 21.366 138.545 21.4467 138.765 21.476C138.971 21.5053 139.308 21.52 139.777 21.52H140.877L139.997 26.58H135.905ZM141.273 32.806L145.519 8.65001H151.107L150.821 11.774H151.085C151.496 10.7033 152.134 9.86001 152.999 9.24401C153.865 8.62801 154.796 8.32001 155.793 8.32001C157.377 8.32001 158.609 8.84068 159.489 9.88201C160.355 10.938 160.787 12.522 160.787 14.634C160.787 15.6753 160.677 16.8267 160.457 18.088C160.105 20.0973 159.592 21.762 158.917 23.082C158.257 24.4167 157.509 25.3993 156.673 26.03C155.823 26.6607 154.943 26.976 154.033 26.976C152.684 26.976 151.635 26.6753 150.887 26.074C150.154 25.4727 149.743 24.6367 149.655 23.566H149.325L147.697 32.806H141.273ZM151.129 21.542C151.76 21.542 152.317 21.1607 152.801 20.398C153.285 19.6353 153.659 18.5207 153.923 17.054C154.055 16.2327 154.121 15.5873 154.121 15.118C154.121 14.634 154.055 14.282 153.923 14.062C153.791 13.842 153.579 13.732 153.285 13.732C152.625 13.732 152.053 14.0987 151.569 14.832C151.1 15.5507 150.748 16.5993 150.513 17.978C150.352 18.9167 150.271 19.628 150.271 20.112C150.271 20.596 150.337 20.9553 150.469 21.19C150.616 21.4247 150.836 21.542 151.129 21.542ZM161.249 26.58L165.517 2.42401H172.139L167.871 26.58H161.249ZM180.213 8.32001C182.369 8.32001 184.034 8.74534 185.207 9.59601C186.395 10.4467 186.989 11.7813 186.989 13.6C186.989 14.1133 186.931 14.6927 186.813 15.338L184.833 26.58H179.179L179.355 24.314H178.981C178.659 25.1207 178.248 25.7147 177.749 26.096C177.251 26.492 176.781 26.734 176.341 26.822C175.901 26.9247 175.454 26.976 174.999 26.976C173.635 26.976 172.587 26.6753 171.853 26.074C171.12 25.4873 170.753 24.5927 170.753 23.39C170.753 22.9647 170.79 22.5467 170.863 22.136C171.157 20.4787 172.044 19.0707 173.525 17.912C175.168 16.6213 177.559 15.6387 180.697 14.964L180.719 14.942C180.954 14.2967 181.071 13.8127 181.071 13.49C181.071 13.226 180.983 13.028 180.807 12.896C180.631 12.7493 180.353 12.676 179.971 12.676C179.502 12.676 179.062 12.8153 178.651 13.094C178.255 13.358 177.933 13.688 177.683 14.084C177.419 14.4947 177.243 14.9127 177.155 15.338L172.513 13.226C173.085 11.5687 174.053 10.3367 175.417 9.53001C176.781 8.72335 178.38 8.32001 180.213 8.32001ZM177.463 22.708C177.771 22.708 178.116 22.5907 178.497 22.356C178.879 22.1213 179.209 21.806 179.487 21.41L179.883 18.99C179.311 19.122 178.791 19.364 178.321 19.716C177.852 20.0533 177.485 20.442 177.221 20.882C176.943 21.3073 176.803 21.696 176.803 22.048C176.803 22.268 176.862 22.4367 176.979 22.554C177.111 22.6567 177.273 22.708 177.463 22.708ZM190.773 33.576C189.732 33.576 188.933 33.5173 188.375 33.4C187.818 33.2827 187.253 33.114 186.681 32.894L188.199 29C188.595 29.088 188.977 29.132 189.343 29.132C190.223 29.132 190.913 28.934 191.411 28.538C191.895 28.1273 192.299 27.4747 192.621 26.58H190.905L189.189 8.65001H195.833V15.69L195.503 20.574H195.767L197.087 15.69L199.617 8.65001H206.371L198.319 26.8C196.325 31.3173 193.809 33.576 190.773 33.576Z" fill="white"/>
<path d="M147.959 43.8066C148.48 43.8066 148.913 43.9629 149.258 44.2754C149.603 44.5814 149.775 44.9753 149.775 45.457C149.775 45.9388 149.603 46.3359 149.258 46.6484C148.913 46.9544 148.48 47.1074 147.959 47.1074C147.432 47.1074 146.995 46.9512 146.65 46.6387C146.312 46.3262 146.143 45.9323 146.143 45.457C146.143 44.9818 146.312 44.5879 146.65 44.2754C146.995 43.9629 147.432 43.8066 147.959 43.8066ZM156.533 44.9199C157.054 44.9199 157.477 44.7767 157.803 44.4902C158.128 44.2038 158.298 43.8229 158.311 43.3477H160.957C160.951 44.0638 160.755 44.7214 160.371 45.3203C159.987 45.9128 159.46 46.375 158.789 46.707C158.125 47.0326 157.389 47.1953 156.582 47.1953C155.072 47.1953 153.88 46.7168 153.008 45.7598C152.135 44.7962 151.699 43.4681 151.699 41.7754V41.5898C151.699 39.9622 152.132 38.6634 152.998 37.6934C153.864 36.7233 155.052 36.2383 156.562 36.2383C157.884 36.2383 158.942 36.6159 159.736 37.3711C160.537 38.1198 160.944 39.1191 160.957 40.3691H158.311C158.298 39.8223 158.128 39.3796 157.803 39.041C157.477 38.696 157.048 38.5234 156.514 38.5234C155.856 38.5234 155.358 38.7643 155.02 39.2461C154.688 39.7214 154.521 40.4961 154.521 41.5703V41.8633C154.521 42.9505 154.688 43.7318 155.02 44.207C155.352 44.6823 155.856 44.9199 156.533 44.9199ZM165.547 47H162.715V32H165.547V47ZM174.209 45.9258C173.512 46.7721 172.549 47.1953 171.318 47.1953C170.186 47.1953 169.32 46.8698 168.721 46.2188C168.128 45.5677 167.826 44.6139 167.812 43.3574V36.4336H170.635V43.2598C170.635 44.36 171.136 44.9102 172.139 44.9102C173.096 44.9102 173.753 44.5781 174.111 43.9141V36.4336H176.943V47H174.287L174.209 45.9258ZM188.594 41.8145C188.594 43.5072 188.232 44.8288 187.51 45.7793C186.787 46.7233 185.778 47.1953 184.482 47.1953C183.337 47.1953 182.422 46.7559 181.738 45.877L181.611 47H179.072V32H181.895V37.3809C182.546 36.6191 183.402 36.2383 184.463 36.2383C185.752 36.2383 186.761 36.7135 187.49 37.6641C188.226 38.6081 188.594 39.9395 188.594 41.6582V41.8145ZM185.771 41.6094C185.771 40.5417 185.602 39.7637 185.264 39.2754C184.925 38.7806 184.421 38.5332 183.75 38.5332C182.852 38.5332 182.233 38.901 181.895 39.6367V43.8066C182.24 44.5488 182.865 44.9199 183.77 44.9199C184.681 44.9199 185.28 44.4707 185.566 43.5723C185.703 43.1426 185.771 42.4883 185.771 41.6094Z" fill="white"/>
<path d="M19.2064 0.935952C19.0396 0.975827 18.8884 1.06409 18.7717 1.18965L1.16618 18.7826C1.08503 18.8634 1.02065 18.9593 0.97671 19.0649C0.932773 19.1706 0.910156 19.2839 0.910156 19.3983C0.910156 19.5127 0.932773 19.626 0.97671 19.7317C1.02065 19.8373 1.08503 19.9333 1.16618 20.014L12.9032 31.7454C12.9841 31.8262 13.0801 31.8902 13.1858 31.9339C13.2915 31.9776 13.4048 32.0001 13.5192 32C13.6336 31.9999 13.7468 31.9774 13.8525 31.9336C13.9581 31.8898 14.0541 31.8256 14.135 31.7448C14.2158 31.6639 14.2799 31.568 14.3236 31.4624C14.3674 31.3567 14.3898 31.2436 14.3898 31.1293C14.3897 31.015 14.3671 30.9018 14.3233 30.7962C14.2795 30.6907 14.2153 30.5948 14.1344 30.514L3.01299 19.4001L19.7131 2.7095L29.4583 3.3976L30.2548 13.6068C30.2607 13.7236 30.29 13.838 30.3411 13.9432C30.3921 14.0485 30.4639 14.1424 30.552 14.2193C30.6401 14.2963 30.7427 14.3548 30.8539 14.3914C30.9651 14.4279 31.0825 14.4417 31.1991 14.432C31.3158 14.4223 31.4292 14.3892 31.5328 14.3348C31.6364 14.2804 31.728 14.2057 31.8021 14.1152C31.8763 14.0248 31.9315 13.9203 31.9644 13.8081C31.9973 13.6958 32.0073 13.5781 31.9938 13.462L31.0883 2.49172C31.0716 2.28602 30.9822 2.09298 30.8361 1.94716C30.6899 1.80134 30.4966 1.71226 30.2907 1.69588L19.4591 0.935952C19.3754 0.923652 19.2902 0.923652 19.2064 0.935952Z" fill="url(#paint0_linear)"/>
<path d="M30.7583 13.2247L13.0088 30.7717L14.2501 31.9998L31.8224 14.6682C32.148 14.3471 32.0483 13.799 31.6305 13.6132L30.7595 13.2258L30.7583 13.2247ZM25.3853 4.67407C24.4911 4.68715 23.6383 5.04865 23.0123 5.67996C22.3863 6.31128 22.0378 7.16137 22.0425 8.04534C22.0557 8.92902 22.4213 9.77183 23.0597 10.3906C23.6982 11.0093 24.5578 11.3539 25.4519 11.3496C26.3459 11.3365 27.1986 10.9751 27.8245 10.3441C28.4505 9.71302 28.7991 8.86324 28.7947 7.97947C28.7815 7.09579 28.4159 6.25297 27.7775 5.63424C27.1391 5.01551 26.2794 4.67088 25.3853 4.67523V4.67407ZM25.4028 6.41977C25.6152 6.41483 25.8264 6.452 26.024 6.52911C26.2216 6.60622 26.4015 6.7217 26.5532 6.86871C26.7049 7.01573 26.8252 7.19129 26.907 7.38505C26.9889 7.5788 27.0307 7.78683 27.0298 7.99681C27.0343 8.20654 26.9964 8.41505 26.9182 8.61007C26.84 8.8051 26.7231 8.98271 26.5745 9.13244C26.4258 9.28217 26.2484 9.40102 26.0526 9.48198C25.8568 9.56294 25.6466 9.60439 25.4344 9.60388C25.2223 9.6085 25.0115 9.57112 24.8142 9.49394C24.617 9.41676 24.4374 9.30134 24.286 9.15448C24.1346 9.00762 24.0144 8.83228 23.9326 8.63882C23.8509 8.44535 23.8091 8.23768 23.8098 8.028C23.8049 7.81832 23.8426 7.60979 23.9205 7.41472C23.9984 7.21964 24.115 7.04193 24.2635 6.89207C24.4119 6.74221 24.5892 6.62323 24.7849 6.54212C24.9805 6.46101 25.1907 6.41941 25.4028 6.41977Z" fill="url(#paint1_linear)"/>
<defs>
<linearGradient id="paint0_linear" x1="-47.6734" y1="-37.5238" x2="16.9221" y2="-7.37895" gradientUnits="userSpaceOnUse">
<stop stop-color="#8E42D3"/>
<stop offset="1" stop-color="#D46975"/>
</linearGradient>
<linearGradient id="paint1_linear" x1="-45.9831" y1="-21.3379" x2="10.8758" y2="5.48536" gradientUnits="userSpaceOnUse">
<stop stop-color="#8E42D3"/>
<stop offset="1" stop-color="#D46975"/>
</linearGradient>
</defs>
</svg>
