<svg data-v-5f19e91b="" xmlns="http://www.w3.org/2000/svg" width="406" height="58" viewBox="0 0 406 58"><!----> <!----> <!----> <g data-v-5f19e91b="" id="ee8a5054-c1d7-224e-09fc-bba303454e64" fill="white" transform="matrix(4.237288466635035,0,0,4.237288466635035,76.79596875385147,-13.063675607174318)"><path d="M0.19 13.78L2.13 2.80L6.69 2.80L6.56 10.46L9.14 2.80L13.73 2.80L11.80 13.78L8.72 13.78L9.28 10.39L10.51 5.38L10.42 5.38L7.17 13.78L4.85 13.78L4.57 5.38L4.44 5.38L3.90 10.39L3.27 13.78L0.19 13.78ZM17.58 5.48L17.58 5.48Q19.05 5.48 19.86 6.06L19.86 6.06L19.86 6.06Q20.67 6.64 20.67 7.88L20.67 7.88L20.67 7.88Q20.67 8.23 20.59 8.67L20.59 8.67L19.69 13.78L17.12 13.78L17.19 12.75L17.03 12.75L17.03 12.75Q16.81 13.30 16.47 13.56L16.47 13.56L16.47 13.56Q16.13 13.83 15.83 13.89L15.83 13.89L15.83 13.89Q15.52 13.96 15.22 13.96L15.22 13.96L15.22 13.96Q14.29 13.96 13.79 13.55L13.79 13.55L13.79 13.55Q13.29 13.15 13.29 12.33L13.29 12.33L13.29 12.33Q13.29 12.04 13.34 11.76L13.34 11.76L13.34 11.76Q13.54 10.63 14.54 9.84L14.54 9.84L14.54 9.84Q15.66 8.96 17.81 8.50L17.81 8.50L17.81 8.49L17.81 8.49Q17.98 8.05 17.98 7.83L17.98 7.83L17.98 7.83Q17.98 7.65 17.86 7.56L17.86 7.56L17.86 7.56Q17.74 7.46 17.48 7.46L17.48 7.46L17.48 7.46Q17.15 7.46 16.88 7.65L16.88 7.65L16.88 7.65Q16.60 7.83 16.43 8.10L16.43 8.10L16.43 8.10Q16.26 8.38 16.19 8.67L16.19 8.67L14.09 7.71L14.09 7.71Q14.47 6.58 15.40 6.03L15.40 6.03L15.40 6.03Q16.33 5.48 17.58 5.48L17.58 5.48ZM16.34 12.02L16.34 12.02Q16.55 12.02 16.81 11.86L16.81 11.86L16.81 11.86Q17.06 11.70 17.25 11.43L17.25 11.43L17.44 10.33L17.44 10.33Q17.04 10.42 16.73 10.66L16.73 10.66L16.73 10.66Q16.41 10.89 16.22 11.19L16.22 11.19L16.22 11.19Q16.04 11.48 16.04 11.72L16.04 11.72L16.04 11.72Q16.04 11.87 16.12 11.95L16.12 11.95L16.12 11.95Q16.20 12.02 16.34 12.02L16.34 12.02ZM20.95 13.78L22.39 5.63L24.83 5.63L24.77 6.81L24.90 6.81L24.90 6.81Q25.20 6.10 25.58 5.79L25.58 5.79L25.58 5.79Q25.96 5.48 26.48 5.48L26.48 5.48L26.48 5.48Q26.80 5.48 27.31 5.63L27.31 5.63L26.81 8.39L26.81 8.39Q26.58 8.34 26.31 8.34L26.31 8.34L26.31 8.34Q25.68 8.34 25.22 8.78L25.22 8.78L25.22 8.78Q24.77 9.21 24.60 10.16L24.60 10.16L23.96 13.78L20.95 13.78ZM35.94 5.63L33.22 8.46L34.54 13.78L31.40 13.78L30.88 10.45L30.25 10.83L29.71 13.78L26.70 13.78L28.64 2.80L31.64 2.80L30.64 8.31L32.76 5.63L35.94 5.63ZM39.60 5.48L39.60 5.48Q41.10 5.48 41.84 6.20L41.84 6.20L41.84 6.20Q42.58 6.93 42.58 8.23L42.58 8.23L42.58 8.23Q42.58 8.71 42.49 9.19L42.49 9.19L42.49 9.19Q42.40 9.72 42.20 10.38L42.20 10.38L38.29 10.38L38.29 10.38Q38.21 10.69 38.21 10.93L38.21 10.93L38.21 10.93Q38.21 11.31 38.40 11.50L38.40 11.50L38.40 11.50Q38.59 11.68 38.89 11.68L38.89 11.68L38.89 11.68Q39.30 11.68 39.60 11.44L39.60 11.44L39.60 11.44Q39.91 11.20 40.07 10.77L40.07 10.77L42.17 11.41L42.17 11.41Q41.78 12.40 41.25 12.96L41.25 12.96L41.25 12.96Q40.71 13.52 40.08 13.74L40.08 13.74L40.08 13.74Q39.45 13.96 38.67 13.96L38.67 13.96L38.67 13.96Q37.75 13.96 37.02 13.62L37.02 13.62L37.02 13.62Q36.30 13.28 35.87 12.56L35.87 12.56L35.87 12.56Q35.44 11.84 35.44 10.74L35.44 10.74L35.44 10.74Q35.44 10.19 35.55 9.58L35.55 9.58L35.55 9.58Q36.29 5.48 39.60 5.48L39.60 5.48ZM39.74 7.61L39.74 7.61Q39.31 7.61 39.04 7.89L39.04 7.89L39.04 7.89Q38.77 8.16 38.66 8.59L38.66 8.59L40.17 8.59L40.17 8.59Q40.22 8.26 40.22 8.13L40.22 8.13L40.22 8.13Q40.22 7.88 40.11 7.75L40.11 7.75L40.11 7.75Q40.00 7.61 39.74 7.61L39.74 7.61ZM45.44 13.78L45.44 13.78Q44.35 13.78 43.86 13.33L43.86 13.33L43.86 13.33Q43.37 12.89 43.37 11.92L43.37 11.92L43.37 11.92Q43.37 11.46 43.47 10.88L43.47 10.88L44.06 7.48L43.27 7.48L43.60 5.63L44.64 5.63L45.61 3.76L47.71 3.76L47.38 5.63L48.66 5.63L48.33 7.48L47.05 7.48L46.55 10.32L46.55 10.32Q46.46 10.86 46.46 11.08L46.46 11.08L46.46 11.08Q46.46 11.27 46.53 11.35L46.53 11.35L46.53 11.35Q46.59 11.44 46.74 11.46L46.74 11.46L46.74 11.46Q46.88 11.48 47.20 11.48L47.20 11.48L47.70 11.48L47.30 13.78L45.44 13.78ZM47.88 16.61L49.81 5.63L52.35 5.63L52.22 7.05L52.34 7.05L52.34 7.05Q52.62 6.32 53.21 5.90L53.21 5.90L53.21 5.90Q53.80 5.48 54.48 5.48L54.48 5.48L54.48 5.48Q55.56 5.48 56.16 6.19L56.16 6.19L56.16 6.19Q56.75 6.91 56.75 8.35L56.75 8.35L56.75 8.35Q56.75 9.06 56.60 9.92L56.60 9.92L56.60 9.92Q56.36 11.29 55.90 12.19L55.90 12.19L55.90 12.19Q55.45 13.10 54.88 13.53L54.88 13.53L54.88 13.53Q54.30 13.96 53.68 13.96L53.68 13.96L53.68 13.96Q52.76 13.96 52.25 13.55L52.25 13.55L52.25 13.55Q51.75 13.14 51.69 12.41L51.69 12.41L51.54 12.41L50.80 16.61L47.88 16.61ZM52.36 11.49L52.36 11.49Q52.79 11.49 53.12 10.97L53.12 10.97L53.12 10.97Q53.45 10.45 53.63 9.45L53.63 9.45L53.63 9.45Q53.72 8.89 53.72 8.57L53.72 8.57L53.72 8.57Q53.72 8.24 53.63 8.09L53.63 8.09L53.63 8.09Q53.54 7.94 53.34 7.94L53.34 7.94L53.34 7.94Q52.89 7.94 52.56 8.44L52.56 8.44L52.56 8.44Q52.24 8.93 52.08 9.87L52.08 9.87L52.08 9.87Q51.97 10.51 51.97 10.84L51.97 10.84L51.97 10.84Q51.97 11.17 52.06 11.33L52.06 11.33L52.06 11.33Q52.16 11.49 52.36 11.49L52.36 11.49ZM56.96 13.78L58.90 2.80L61.91 2.80L59.97 13.78L56.96 13.78ZM65.58 5.48L65.58 5.48Q67.05 5.48 67.85 6.06L67.85 6.06L67.85 6.06Q68.66 6.64 68.66 7.88L68.66 7.88L68.66 7.88Q68.66 8.23 68.58 8.67L68.58 8.67L67.68 13.78L65.11 13.78L65.19 12.75L65.02 12.75L65.02 12.75Q64.80 13.30 64.46 13.56L64.46 13.56L64.46 13.56Q64.12 13.83 63.82 13.89L63.82 13.89L63.82 13.89Q63.52 13.96 63.21 13.96L63.21 13.96L63.21 13.96Q62.28 13.96 61.78 13.55L61.78 13.55L61.78 13.55Q61.28 13.15 61.28 12.33L61.28 12.33L61.28 12.33Q61.28 12.04 61.33 11.76L61.33 11.76L61.33 11.76Q61.53 10.63 62.54 9.84L62.54 9.84L62.54 9.84Q63.66 8.96 65.80 8.50L65.80 8.50L65.81 8.49L65.81 8.49Q65.97 8.05 65.97 7.83L65.97 7.83L65.97 7.83Q65.97 7.65 65.85 7.56L65.85 7.56L65.85 7.56Q65.73 7.46 65.47 7.46L65.47 7.46L65.47 7.46Q65.15 7.46 64.87 7.65L64.87 7.65L64.87 7.65Q64.60 7.83 64.43 8.10L64.43 8.10L64.43 8.10Q64.25 8.38 64.19 8.67L64.19 8.67L62.08 7.71L62.08 7.71Q62.47 6.58 63.40 6.03L63.40 6.03L63.40 6.03Q64.33 5.48 65.58 5.48L65.58 5.48ZM64.33 12.02L64.33 12.02Q64.54 12.02 64.80 11.86L64.80 11.86L64.80 11.86Q65.06 11.70 65.25 11.43L65.25 11.43L65.43 10.33L65.43 10.33Q65.04 10.42 64.72 10.66L64.72 10.66L64.72 10.66Q64.40 10.89 64.22 11.19L64.22 11.19L64.22 11.19Q64.03 11.48 64.03 11.72L64.03 11.72L64.03 11.72Q64.03 11.87 64.11 11.95L64.11 11.95L64.11 11.95Q64.20 12.02 64.33 12.02L64.33 12.02ZM70.38 16.96L70.38 16.96Q69.67 16.96 69.29 16.88L69.29 16.88L69.29 16.88Q68.91 16.80 68.52 16.65L68.52 16.65L69.21 14.88L69.21 14.88Q69.48 14.94 69.73 14.94L69.73 14.94L69.73 14.94Q70.33 14.94 70.67 14.67L70.67 14.67L70.67 14.67Q71.00 14.39 71.22 13.78L71.22 13.78L70.44 13.78L69.66 5.63L72.68 5.63L72.68 8.83L72.53 11.05L72.65 11.05L73.25 8.83L74.40 5.63L77.47 5.63L73.81 13.88L73.81 13.88Q72.45 16.96 70.38 16.96L70.38 16.96Z"></path></g> <!----> <g data-v-5f19e91b="" id="d414dead-cab4-45f2-3015-30c7b6689b3f" transform="matrix(0.8000101725260417,0,0,0.8000101725260417,-11.00074704284392,-11.001057747326556)" stroke="none" fill="white"><g color="#000"><path style="text-indent:0;text-transform:none;block-progression:tb" d="M63.646 41.283c-12.335 0-22.354 10.021-22.354 22.359C41.292 75.979 51.31 86 63.646 86 75.98 86 86 75.98 86 63.642c0-12.338-10.02-22.359-22.354-22.359zm0 1.512c11.524 0 20.843 9.32 20.843 20.847 0 11.526-9.319 20.891-20.843 20.891-11.525 0-20.843-9.365-20.843-20.891 0-11.527 9.318-20.847 20.843-20.847z" overflow="visible"></path><path style="text-indent:0;text-transform:none;block-progression:tb" d="M38.225 14.08a22.398 22.398 0 0 0-8.844 1.022c-11.723 3.838-18.103 16.5-14.266 28.226 3.838 11.725 16.453 18.106 28.177 14.269a.75.75 0 1 0-.445-1.423c-10.953 3.586-22.724-2.38-26.31-13.335-3.584-10.955 2.38-22.684 13.333-26.27 10.953-3.585 22.725 2.336 26.31 13.29a20.877 20.877 0 0 1 .133 12.491.766.766 0 1 0 1.467.445 22.353 22.353 0 0 0-.178-13.38c-2.878-8.794-10.698-14.603-19.377-15.335zM64.46 51.804a.75.75 0 0 0-.375.219L48.899 67.21a.75.75 0 0 0 0 1.063L59.023 78.4a.751.751 0 1 0 1.062-1.063l-9.593-9.594 14.405-14.408 8.406.594.687 8.813a.753.753 0 1 0 1.5-.125l-.781-9.47a.75.75 0 0 0-.688-.687l-9.343-.656a.75.75 0 0 0-.218 0z" overflow="visible"></path><path style="text-indent:0;text-transform:none;block-progression:tb" d="M74.209 62.149L59.023 77.337l1.062 1.063L75.271 63.21 74.21 62.15zM69.612 54.748a2.903 2.903 0 0 0-2.86 2.918 2.903 2.903 0 0 0 2.917 2.86 2.903 2.903 0 0 0 2.86-2.917 2.903 2.903 0 0 0-2.917-2.86zm.015 1.511a1.36 1.36 0 0 1 1.392 1.365 1.362 1.362 0 0 1-1.365 1.391 1.36 1.36 0 0 1-1.39-1.364 1.361 1.361 0 0 1 1.363-1.392zM22.09 25.601a.78.78 0 0 0-.72.782.78.78 0 0 0 .782.719h3.5l3.905 15.438c.082.317.392.56.719.563h16.248a.773.773 0 0 0 .688-.5c1.407-4.024 2.695-8 4.062-12.001.16-.454-.238-1.008-.719-1h-20.28c-.395-.006-.76.354-.76.75a.78.78 0 0 0 .76.75h19.249l-.844 2.5H32.963a.78.78 0 0 0-.725.782.78.78 0 0 0 .788.718h15.123l-.844 2.5H35.4a.782.782 0 0 0-.687.813c.033.393.42.72.812.688h11.28l-.843 2.5H30.838l-3.906-15.408a.773.773 0 0 0-.718-.594h-4.125zM31.932 45.616a.753.753 0 0 0 .125 1.5h4.062a.75.75 0 1 0 0-1.5h-4.062a.75.75 0 0 0-.125 0zM40.025 45.616a.754.754 0 0 0 .156 1.5h4.062a.75.75 0 1 0 0-1.5h-4.062a.75.75 0 0 0-.156 0z" overflow="visible"></path></g></g></svg>